<?xml version="1.0" encoding="UTF-8"?>
<svg version="1.1" viewBox="0 0 1024 1024" width="1024" height="1024" xmlns="http://www.w3.org/2000/svg">
<path transform="translate(0)" d="m0 0h1024v1024h-1024z" fill="#90A8AF"/>
<path transform="translate(383,223)" d="m0 0h271l20 3 27 9 5 3 13 7 12 9 11 10 9 11 12 19 6 14 7 26 1 8v285l-3 15-6 19-9 19-9 12-12 13-9 8-10 7-16 8-21 7-20 3-72 1-17 2-6 2-9 6-11 10-7 8-6 5-6 7-6 2-14-14-11-14-10-9-9-4-7-1-89-1-18-3-22-7-18-10-14-11-11-11-10-14-8-13-8-20-4-15-1-8v-288l4-21 7-20 10-18 9-11 6-7 6-5 5-5 14-10 16-8 21-7z" fill="#C0C9C9"/>
<path transform="translate(467,105)" d="m0 0 4 2 1 6 3 2 26 1 2 1 4-1v2l3-1v2h9l11 1 7 4 7-1 3-4 4 1 1 7h14l3-8h2v-2l2-1h9l1 4-6 2 1 5h4l1-6 2-1h9l6 5 8 2 3 3v2l6-3h8l2 1v2h2v-3l-2-1v-4h5l1 1 9 2h5l4-3h6l9 4 14 7 5 2 2 2 8 3 1 1h15l12 9 2 1v2l3-1v2l4 1 4 4v2h2v3l6 2 2 4 7 2 2 5v3l8 1 7 8 5 3 9 12 10 14 3 4 3 12v8l4 4 2 10 1 7 2 6 6 14 7 23 4 20v176l-2 1-1 111-1 21-3 19-2 5-2 9-8 19-9 17-7 10-9 11-11 12h-2l-1 3-10 8-20 13-17 8-15 6-22 5-19 2-77 2-8 2-6 4-18 22-11 11-5 6-8 7-5 3-10 1 1 1 8 1v2h-11l-8-5-8-8-11-15-9-11-10-11-3-2v-3l3-1-4-3-8-2-77-1-25-3-13-3-16-6-15-7-17-10-10-9-8-6-8-7v-2h-3l5 6v2l-4-2-9-9-11-15-8-13-9-21-5-14-3-11-1-12-2-17-1-84h-5l-6-12-3-7 1-2-6-2-1-5 1-2h6l-1-6-4-1-1-5 5-4v-6l-7-11v-11l3-3h3l2-6 2-2 5-2 1-6h-2l-1-7-4-4 2-8v-3l-2-1-2-3h2v-6l-4-1-1-5 3-9 2-7 2-3v-12l-7-5-1-14-5-2-1-8 2-6h2l-1-5-3-3-1-4-1-7-2-7h2l2-15h3l-1-6 1-2 1-12 3-4 1-3 2-1 3-7-2-3 7-10 3-10 1-8 4-7 3-2 2-1 2-6 4-2v-5l7-6 2-5 4-16 4-5 8-6 6-2-1-4h4v-2l5-2 2-5 1-2h3l2-6 9-7 9-4 4-4 2-5 4-3v-3h10l2 1v-2h2v-2h9l7 3 1-5h9l2 4h8l6-3 2-3-2-2h12l5-2h20l5 3 4-1 1-2 14-1 3-3 7-3h6l1-2h8l3 2 6-1 9-2zm-84 118-17 3-21 7-12 6-11 7-11 8-5 6-5 5-10 11-12 21-7 20-4 21v288l3 16 5 15 6 13 8 14 11 14 11 11 15 11 15 8 22 7 18 3 89 1 10 2 8 5 9 8 8 10 9 10 7 7 6-2 6-7 8-7 12-13 11-8 3-2 10-2 12-1 72-1 20-3 21-7 16-8 16-12 11-11 8-10 7-11 7-15 6-19 3-15v-285l-2-11-7-26-8-16-9-14-13-15-13-11-13-8-10-5-9-4-23-7-16-2z" fill="#C0C9C9"/>
<path transform="translate(824,318)" d="m0 0h2l1 7 6 3 1 3 6 1 3 2h2l4 10 5 4 4 9v2l4 1 4 7 4 3 2 7 5 2 4 7 4 2 3 11 5 4 1 2 1 9 3 4 2 11h-3l1 9-1 4v8l2 12 1 1 2 12h-2v2l2 1 1 6 1 2v23l-2 5h-2v9h3l1 3v19l-1 3h-3l1 33 2 4v12l3 13 1 1v19l3 7-3 5v5h2l2 3-1 16-1 1-1 16-1 5v8l3 7-1 1v25l5 2-1 4-1 7 1 7-4 6v23l-2 2-1-1v-24h-3l1 11-2 7h-1v13l2 2h-2l-1 6-3-2-7 3-6 7-4 13-4 4h-2l-1 9-5 6v5l-8 10-7 6-3 6-10 3-3 9-2 2-1-3-7 1-6 7h-6v2l-6 1-2 5-7 1-3 7-4-2v-4l-15 3v2h-2l1 6h-3v2l-4-2-1-2h-4v-3l-12 4-8 2-9 1-3-2h-30l-1 3-3 1-1 2v-2l-3 3-1 3h-5l-1-1-4 2-1 1-1 2h-2l-2 4h-4l-2-3-6 2-9 4-3 4-6-1-3-2-5 1-3 4-9-2-1 5h-2l-1 2-4-1-17 1-6-4-4-1-1-3-9-3-5-5-19-1-7-1-5-1-5-4-9-5-5-2-15-5-2-1v-2l-8 1-7-3v2l-2 1h-21l-13-2-14-5-8-1-7-3-7-1-4-3-9-2-8-4-8-3-3-2-9-3-8-5-2-4-6-1-10-6-6-2v-2l-4-1-3-2v-2l-6-1-8-6-8-5-4-7-6-8-9-7-5-4-6-8-1-4-4-7-4-3v-3h-2l-5-12-3-4-2-10-3-6-1-7-3-1 1-2 5 2-6-8 1-2 3 2v2l4 2 7 7 11 8 7 6 14 8 15 7 10 4 13 4 21 3 10 1 77 1 10 3 3 4h-4l1 3 8 7 12 14 14 19 8 8 6 3 11 1v-2h-8l-2-1 1-2 10-1 6-4 10-9 7-8 7-7 16-20 5-4 4-2 6-1 77-2 19-2 22-5 15-6 19-9 22-15 6-5 5-5 9-10 12-15 6-10 8-16 7-18 2-9 1-2 3-20 1-20 1-111 1-15h1v-162z" fill="#708E9F"/>
<path transform="translate(502,312)" d="m0 0h37l17 3 16 4 17 6v2l6 2 12 7 14 10 14 12 10 11 13 17 8 13 7 14 6 18 4 17 2 16v27l-4 21-7 22-8 16-8 14-11 14-11 12-11 11-13 10-14 8-16 8-18 6-22 5h-41l-11-3-13-3-17-6-16-8v-2l-6-2-14-10-11-10-13-13-8-10v-2h-2l-5-9-3-5-8-16-7-19-4-16-1-9-1-1v-16l1-16 4-26 9-27 9-16 3-6 9-13 9-11 7-7 11-9 13-10 19-11 21-8z" fill="#2E506D"/>
<path transform="translate(635,204)" d="m0 0h11l19 1 17 3 19 6 12 5 16 9 13 10 15 15 9 12 11 18 8 16 8 27 1 6v298l-3 19-8 25-6 12-10 15-7 9-9 10-11 10-11 7-17 9-17 6-21 4-16 1-73 1-11 2-9 6-10 9-13 13-7 8-4 5-6 5h-5l-7-7-10-13-13-13-7-8-6-5-2-1-15-1-82-1-16-2-21-6-20-9-12-8-12-11-11-11-12-16-9-16-7-16-5-16-2-12-1-2v-292l5-25 5-16 5-11 3-7 8-14 9-12 9-10 7-7 13-10 21-12 17-6 17-4 10-1zm-252 19-17 3-21 7-12 6-11 7-11 8-5 6-5 5-10 11-12 21-7 20-4 21v288l3 16 5 15 6 13 8 14 11 14 11 11 15 11 15 8 22 7 18 3 89 1 10 2 8 5 9 8 8 10 9 10 7 7 6-2 6-7 8-7 12-13 11-8 3-2 10-2 12-1 72-1 20-3 21-7 16-8 16-12 11-11 8-10 7-11 7-15 6-19 3-15v-285l-2-11-7-26-8-16-9-14-13-15-13-11-13-8-10-5-9-4-23-7-16-2z" fill="#21364F"/>
<path transform="translate(827,423)" d="m0 0h1l1 16 2-5h1l4 16 2 5 2 10v22l-1 3-1 36-2 4v11l-1 4 3 8 1 3 1 11v15l-1 2v12l3 6 1 19v20l2 7 1 13v39h-2l-2 7v14l-4 13-2 3-2 16-4 11-3 6-3 4h-2l-2 7-9 7-5 7h-2v2l-12 9-7 2-5 4-5 1-2 4-12 5-8 4-15 5h-10l-7 2-21 2h-10l-13 3-16 3-4 1-6-1-14 4-8 3-21 7h-2l-2 4-4 3-5 1-5 3-15 5-3 2h-8l-14-2-9-5-4-2v-3l-4-1v-2l-7-2v-2l-7-2-7-4v-2l-4 1 1-3-11 1-2-1h-9l-9-2-4-1-14-3-23-1-26-2-7-3-9-2-12-6-9-3v-2l-5-1-4-4-11-7-4-5-1-4-4-2-4-3-9-4-1-3-4-2-8-5-3-2v-2l-4-1 1-2 22 8 24 6 18 2 25 1 55 1 9 3 10 9 11 13 14 19 8 8 6 3h11l7-3 8-7 7-8 11-12 12-13 10-10 5-2 66-1 19-1 19-3 25-7 14-5 15-8 12-8 11-8 18-18 9-11 7-9 6-11 5-10 2-7 4-10 5-21 2-12 1-27z" fill="#55748B"/>
<path transform="translate(508,288)" d="m0 0h25l20 2 25 6 21 9 19 10 24 18 12 11 13 14 13 19 10 18 7 17 6 19 3 15 2 14v26l-3 23-6 23-5 13-10 21-6 10-9 11-5 7h-2l-2 4-17 17-8 6-8 7-11 7-14 8-20 8-24 7-16 2-9 1h-18l-19-2-21-5-16-5-15-7-18-10-12-8-9-7v-2l-4-2-19-19-11-15-11-18-10-21-7-24-4-19-1-8v-30l3-20 5-19 7-19 10-21 11-16 13-16 14-14 11-9 14-10 19-10 11-5 25-8 17-3zm-6 24-26 6-16 6-16 8-12 8-16 13-12 11-12 15-7 11-8 16-3 5-8 25-4 26-1 16v16l1 1 2 13 6 21 6 15 8 15 5 7 1 3h2l2 4 9 11 8 9 8 7 13 10 10 6h2v2l16 8 17 6 22 5 2 1h41l26-6 14-5 16-8 11-6 13-10 10-9 12-12 11-14 6-9 5-9 9-18 7-24 3-17v-27l-3-20-4-15-3-11-7-15-6-11-10-14-11-13-7-8-10-9-14-10-13-8-6-3h-2v-2l-27-9-16-3-7-1z" fill="#F8FBF7"/>
<path transform="translate(502,312)" d="m0 0h37l17 3 16 4 17 6v2l6 2 12 7 14 10 14 12 10 11 13 17 8 13 7 14 6 18 4 17 2 16v27l-4 21-7 22-8 16-8 14-11 14-11 12-11 11-13 10-14 8-16 8-18 6-22 5h-41l-11-3-13-3-17-6-16-8v-2l-6-2-14-10-11-10-13-13-8-10v-2h-2l-5-9-3-5-8-16-7-19-4-16-1-9-1-1v-16l1-16 4-26 9-27 9-16 3-6 9-13 9-11 7-7 11-9 13-10 19-11 21-8zm6 26-20 4-16 5-17 8-16 12-13 11-8 9-11 16-6 10-7 17-6 24-1 9v25l4 20 9 26 9 16 10 14 12 12 16 12 13 8 16 7 24 7 14 2h24l18-4 17-6 19-10 11-8 11-9 10-9 10-13 9-16 7-14 4-14 4-21v-25l-2-13-4-18-8-19-9-15-10-13-8-9-11-9-10-7-14-8-16-7-19-5-15-2z" fill="#2E506D"/>
<path transform="translate(709,239)" d="m0 0 5 1 16 10v2l4 2 8 7v2h2l7 8 7 9 5 5 3 8 4 5v2l4 2 2 3 2 9 5 15 3 6 2 13 1 4h3l1-13h1v291l-3 19-8 25-6 12-10 15-7 9-9 10-11 10-11 7-17 9-17 6-21 4-16 1-73 1-11 2-9 6-10 9-13 13-7 8-4 5-6 5h-5l-7-7-10-13-13-13-7-8-6-5-2-1-15-1-82-1-6-1v-1l16-1-8-2-2-3-10-3-16-6-7-3-5-2-5-4-10-5-14-14v-2l-3-1v-2l-4-1-1-3-10-10-3-7h3l9 12 10 10 15 11 15 8 22 7 18 3 89 1 10 2 8 5 10 9 8 10 9 10 6 6 6-2 6-7 8-7 12-13 11-8 3-2 10-2 12-1 72-1 20-3 21-7 16-8 16-12 10-10 8-10 7-11 7-15 6-19 3-15v-285l-2-11-7-26-8-16-9-14-13-15-11-9-14-9z" fill="#15263E"/>
<path transform="translate(508,338)" d="m0 0h24l15 2 21 6 20 9 14 9 11 9 10 9 12 16 9 15 8 19 5 22 1 9v25l-4 21-6 19-12 22-10 13-7 8-11 9-10 8-15 9-15 7-19 6-11 2h-24l-18-3-23-7-16-8-10-6-18-14-11-11-7-10-10-17-7-19-5-17-2-12v-25l2-12 5-21 8-19 7-11 10-14 11-12 14-11 13-9 20-9 19-5zm4 19-14 2-20 7-17 9-12 9-12 11-9 10-8 13-7 16-5 16-2 11v25l4 20 5 15 9 17 12 16 7 8 16 12 18 10 15 5 13 3 11 1h16l14-2 21-7 15-8 12-8 12-11 9-11 11-18 6-13 4-13 3-21v-19l-4-19-6-16-8-15-9-13-9-10-14-11-13-8-16-7-9-3-20-3z" fill="#B5F9FC"/>
<path transform="translate(814,686)" d="m0 0 2 4v7l-1 2v17l-3 15-1 9-4 7-3 10-2 5h-2v2h-2l-1 5-10 11-6 8-8 7-5 3-8 3-13 5-12 6-15 3-9 1-17 2-16 4-10 2-11 1-23 3-18 4-7 4-7 2-4 1v2l-12 6-8 3-11 5-4 1h-7l-9-3-6-3-6-5-7 1 5-4 8-7 7-8 11-12 12-13 10-10 5-2 66-1 19-1 19-3 25-7 14-5 15-8 12-8 11-8 18-18 9-11 7-9 6-11z" fill="#2D4F6C"/>
<path transform="translate(502,312)" d="m0 0h37l17 3v2h-29l-29 2-15 3-17 6-23 12-5 4-5 3-8 6-1 2h-2l-2 4-3 4h-2l-2 4-3 5-7 8-4 6-8 8-5 10-5 14-5 7-4 13-1 14v37l4 16 5 7 3 1 2-12v-7l2-1 3 11 2 4 9 26 9 16 10 14 11 11 16 12 13 8 16 7 24 7 6 1-3 2h-10l-10-4-10-3-24-12v-2h-5l1 5 7 8 9 5 4 2 11 4 3 3 16 5 21 2 8 1 22-2h6v-2l12-2h6v-2l14-6h4v-2l5-2h3v-2l6-4 11-7 7-6h2l1-3 7-6 5-7h2l2-4 4-7h2l2-6 4-4 3-6 3-8 3-5 2-7 4-9 2-13 2-3 3-14v-20l-2-19-6-13-1-6-5-11-6-18-2-5h-2l-2-4-8-6-2-2 1-4-1-5-4-5-5-8v-3l-4-1-8-8v-2l-4-2-5-5h-2l-3-3-2-1v-2l-6-1-8-3-5-3-3-3 1-2 10 3v2l6 2 12 7 14 10 14 12 10 11 13 17 8 13 7 14 6 18 4 17 2 16v27l-4 21-7 22-8 16-8 14-11 14-11 12-11 11-13 10-14 8-16 8-18 6-22 5h-41l-11-3-13-3-17-6-16-8v-2l-6-2-14-10-11-10-13-13-8-10v-2h-2l-5-9-3-5-8-16-7-19-4-16-1-9-1-1v-16l1-16 4-26 9-27 9-16 3-6 9-13 9-11 7-7 11-9 13-10 19-11 21-8z" fill="#2C6588"/>
<path transform="translate(422,212)" d="m0 0h14l32 1 56 1 45 1 15 1h36l10 1h44l11 3 16 1 14 5 9 3 14 10 2 1v2l4 2 12 11v2h2l6 9 11 16 1 5 4 1 7 17 6 21 1 13-1 15-1-2h-3l-3-7-2-13-4-8-4-12-2-9-5-5-5-6-3-8-1-3-4-2-8-10-4-4v-2h-2v-2l-4-2-8-7v-2l-5-2-11-7-8-2-10-5-26-8-16-2h-271l-17 3-21 7-12 6-11 7-9 7h-2l-2 4-6 5-9 11-7 10-8 16-6 17-4 21h-1l-1 6-1 55-2-1-1-6-1-18-1-6-1-30 2-6v-9l2-8 2-3 2-10 4-8 3-12 3-6 6-8 3-2 3-7 6-7 1-3 5-4 5-1 1-3 6-5h2v-2l9-6h7v-2l11-5 13-2 8-3 24-2 1-1h30z" fill="#2E4F6C"/>
<path transform="translate(712,519)" d="m0 0 2 1-1 16-2 5-4 19-6 12-3 9-6 8-5 8-3 4h-2l-1 3-4 3-3 5-5 4-1 8-7 7-3 4-2 5-8 5-8 6-6 4-4 1 1-2-10 3-6 5-13 4-1 3-10 4h-11l-3-1-14 4-20 2h-19l-27-3-16-4-16-8-2-2 3-5 5-1 12 3 15 3 1 1h15l2-1 29-2 17-3 26-8 18-8 17-10 7-5 5-5 11-9 15-15 18-22 2-1 1-3h2l1-5 3-1 4-10 1-4h3l2-6 3-8h2l2-6 3-7h2z" fill="#95BAC7"/>
<path transform="translate(456,172)" d="m0 0h68l140 1 24 4 24 7 26 12 16 10 10 9 8 7 2 4h-3l-11-8-10-8-15-9-17-8-11-4-18-5-19-4-27-1h-244l-21 1-18 3-17 4-18 7-6 3h-3v2l-7 3-8 5-5 3-1 2h-3l-1 3-6 4-5 5h-2v2h-2l-2 4-4 2-2 4-7 7-11 15-10 19-7 15-3 11-3 9-4 24-1 238v50l-2 12h-1l-1-11v-285l2-19 4-20 7-21 8-16 6-11 9-12 10-13 11-11 17-13 15-10 19-9 26-8 16-3 12-1z" fill="#F9FBF7"/>
<path transform="translate(648,376)" d="m0 0 5 3 12 18 8 16 6 18 4 17 2 16v27l-4 21-7 22-8 16-8 14-11 14-11 12-11 11-13 10-14 8-16 8-18 6-22 5h-41l-11-3-13-3-17-6-16-8v-2l-6-2-14-10-11-10-13-13-8-10v-2h-2l-5-9-3-5-8-16-7-19-4-16-1-9-1-1v-16l1-16 1-6h2l1 28 1 13 3 13 4 11 11 26 2 2 5 11 4 3 4 8 5 4v2l4 2v2h2v2l4 1 3 2v2l4 2 5 5 6 5v2l5 2 15 8 16 8 24 8 23 3h18l23-4 8-3 10-3 5-1v-2l5-2h3v-2l10-4 7-5h3l1-3h3v-2l6-3 3-3h2l2-4 6-5 7-8 8-11 6-9 6-8 3-8h2l1-9h2l1-6 4-10 1-6 5-22v-28l-3-17-9-25-6-17-7-13-1-8h-2z" fill="#57839C"/>
<path transform="translate(764,292)" d="m0 0 5 4 1 4 4 2 2 3 2 9 5 15 3 6 2 13 1 4h3l1-13h1v291l-3 19-8 25-6 12-10 15-7 9-9 10-11 10-11 7-17 9-9 2-13 4-12 2h-6l4-2 7-1 3-2 14-5 4-3 14-5h2v-2l5-2h3v-2l7-3 5-5 4-2 1-5 4-2 3-6h2l2-5 4-4h3l1-5h2l2-11 5-6 2-5h2l1-11 3-8h2l1-14 2-7v-13l-1-26 1-4v-9l-1-2v-38l-2-22 1-15v-37l-1-6v-42l1-19v-20l-1-14v-7l-4-11-2-13-7-27-6-12z" fill="#1E324B"/>
<path transform="translate(592,287)" d="m0 0 3 1 5-1 13 6 9 4 4 4 7 2 10 8 8 7 7 6 4 4 7 3 3 1 3 6 3 3 4 10 6 2v2l4 1 3 5 2 7 1 5h2l3 10 7 11 1 7 3 6 3 19v2h-2l-1 11-1 5v3l-2 9-3-1-1-5-2-4-3-15-9-27-8-17-11-18-10-13-14-15-11-10-19-13-4-3v-2l-2-1-1-3-5-4h-6l-4-4-6-4-4-1v-2l-6-1 1-2 2 1v-4z" fill="#C9D7D8"/>
<path transform="translate(335,781)" d="m0 0 8 1 16 4 18 2 25 1 55 1 9 3 10 9 11 13 6 8-1 2-3-1h-12l-14 1-33-2h-8l-5-1-15-5-7-4-16-6-6-4-5-5-4-2v-3l-8-2-2-3-16-5z" fill="#2D4F6C"/>
<path transform="translate(337,407)" d="m0 0 3 1 1 2 3-3h3l-2 4-1 5 1 2v10l-4 16-2 15v30l3 19 7 26 7 17 10 19 8 12 11 14 18 18 11 9 11 7-4 1-5-2h-2v-2l-9-1-7-5-7-2-12-10-1-5-4-1-7-8-5-6-6-9v-2h-2l-5-9-3-2-4-13-3-7-3-5-4-14-3-8-1-8-2-9 2-5-3-7-3-19v-18l3-14 2-1 2-8 3-16h2l2-5z" fill="#C9D7D8"/>
<path transform="translate(383,223)" d="m0 0h271l20 3 27 9 5 3 13 7 12 9 6 5v2l-4-2-3-1-2-2-6-3v-2l-6-1-8-5-12-6-18-6-18-3-12-1h-256l-14 1-18 4-15 6-9 4h-4v2l-8 5h-2v2l-6 5-5 5-4 6-5 4-6 7-4 3v9l-3 3h-2l-2 5-7 19-5 13-2 8-1 186v30l1 78h-2l-1-8v-288l4-21 7-20 10-18 9-11 6-7 6-5 5-5 14-10 16-8 21-7z" fill="#F3F6F2"/>
<path transform="translate(823,655)" d="m0 0h1l3 11-1 2v13l3 6-2 19-4 26-3 7-1 11-4 6-2 8-11 14-4 2v2h-2l-2 4-3 3-6 3-5 6-6 4-15 8-5 2-9 2-2 2-20 3-8 3-9 1-3 1-20 2-6 2-27 3-7 1-12 3-2 1-9 1-4 1v2l-10 4-19 10-13 6-6 2-19-1-18-10-3-2 1-3 7-2 5 5 11 5 4 1h7l14-5 5-3 11-4 5-2v-2l6-3 9-3 7-3 20-4 24-3 7-1 20-4 11-2 15-1 20-5 12-6 11-4 12-5 7-7h2l2-4 13-15 2-5h2v-2h2l1-5 4-13 3-4 2-16 2-8v-17l1-2v-7l-2-5 4-9z" fill="#456E89"/>
<path transform="translate(312,772)" d="m0 0 20 7 3 1v2l5 1 14 4 2 4 6 1 2 1v3l6 2 5 6 16 7 10 4 6 3 10 3 6 1 18 1 23 1 17-1h10l5 4 7 9 8 7 4 2h13l1 5 2 5 2 3-7-2v-2l-7-2-7-4v-2l-4 1 1-3-11 1-2-1h-9l-9-2-4-1-14-3-23-1-26-2-7-3-9-2-12-6-9-3v-2l-5-1-4-4-11-7-4-5-1-4-4-2-4-3-9-4-1-3-4-2-8-5-3-2v-2l-4-1z" fill="#54748B"/>
<path transform="translate(508,338)" d="m0 0h24l15 2 21 6 20 9 14 9 11 9 10 9 4 5-1 2-8-7v-2l-10-4h-3v-2l-5 1-5-5-1 2 5 4 4 5v2l3 1v7l-5-2-9-8-13-8-16-8-12-4-20-3h-19l-14 2-17 6-4-1 2-6 5-4 8-1 4-3 6-2 1-4-15 1-12 5-6 2-3 3-10 3-10 6-9 7-13 10-7 10h-2l-2 4v-3l10-13 12-11 16-12 16-8 13-5 15-4z" fill="#C4F4F6"/>
<path transform="translate(290,686)" d="m0 0h3l9 12 10 10 15 11 15 8 22 7 18 3 89 1 10 2 4 2v2h-7v2h-2v10l4 3-1 2-4-2-15-1-82-1-6-1v-1l16-1-8-2-2-3-10-3-16-6-7-3-5-2-5-4-10-5-14-14v-2l-3-1v-2l-4-1-1-3-10-10z" fill="#14243C"/>
<path transform="translate(824,490)" d="m0 0h1l1 14v136l-4 22-6 20-2 3-3 9-7 13-6 9-9 11-11 12-12 12-14 10-19 11-15 6-20 6-19 4-8 1-19 1-66 1-6 3-16 16-7 8-14 15-6 7-7 5-12-1-2-1 1-2 10-1 6-4 10-9 7-8 7-7 16-20 5-4 4-2 6-1 77-2 19-2 22-5 15-6 19-9 22-15 6-5 5-5 9-10 12-15 6-10 8-16 7-18 2-9 1-2 3-20 1-20 1-111z" fill="#7693A2"/>
<path transform="translate(485,743)" d="m0 0 4 2 10 9 8 10 9 10 6 6 6-2 6-7 8-7 12-13 3-1 15 4h2l1 4-3 3-11 8-19 19-7 8-4 5-6 5h-5l-7-7-10-13-13-13-7-8-3-3-2-4-4-2 1-4 1-6h2v-2z" fill="#1F344D"/>
<path transform="translate(768,313)" d="m0 0 3 3 5 18 1 8v285l-3 15-6 19-9 19-9 12-12 13-9 8-10 7-16 8-21 7-20 3-72 1-17 2-6 2-10 6-1-3 5-5 5-4 10-2 52-2 42-1 16-3 10-3 8-2v-2l7-1v-2l9-5h2v-2l5-3h2l2-4 3-3h2l2-4 4-2 2-5h2l1-4 5-7 12-22 5-22 4-15 1-218-1-65-4-15z" fill="#859FA9"/>
<path transform="translate(571,447)" d="m0 0h7l9 3 8 7 4 6 1 3v9l-3 8-8 9-7 4h-14l-10-5-6-7-3-8v-10l4-8 9-8z" fill="#F8FBF7"/>
<path transform="translate(468,447)" d="m0 0h9l10 4 7 7 3 6v13l-5 10-7 6-7 3h-12l-10-5-6-7-3-7v-12l3-6 4-5 7-5z" fill="#F8FBF7"/>
<path transform="translate(462,436)" d="m0 0h19l13 7 5 5 3 5 2 6v19l-8 15-8 8-3 1-22 1-7-2-11-8-5-13v-18l6-14 8-8zm6 11-8 3-7 5-5 7-1 3v12l5 10 7 6 7 3h12l10-5 6-7 3-7v-13l-5-8-7-6-8-3z" fill="#2D6689"/>
<path transform="translate(565,437)" d="m0 0h12l12 2 8 6 7 10 3 7v10l-1 9-4 8-4 6h-2l-1 3-8 4-6 1h-13l-12-3v-2l-4-2-10-16-1-12 3-12 9-11 6-5zm6 10-9 3-9 8-4 8v10l4 9 6 7 9 4h14l9-6 6-7 3-8v-9l-4-8-7-7-6-3-5-1z" fill="#2E6789"/>
<path transform="translate(502,312)" d="m0 0h37l17 3v2h-29l-29 2-15 3-17 6-23 12-5 4-5 3-8 6-1 2h-2l-2 4-3 4h-2l-2 4-3 5-7 8-4 6-8 8-5 10-5 14-5 7-2 1-1 3h-2l-1-5 5-15 9-16 3-6 9-13 9-11 7-7 11-9 13-10 19-11 21-8z" fill="#306788"/>
<path transform="translate(579,322)" d="m0 0 10 3v2l6 2 12 7 14 10 14 12 10 11 5 6-1 5h2v5l2 1 2 6 7 14 7 21 4 11 3 9 2 13v28l-5 22-2 9-5 13h-2l-1 9h-2l-3 9-10 14-7 11-2 1 2-5 6-10 4-7 3-1 2-7 6-12 1-11 3-6 2-13 2-3 3-14v-20l-2-19-6-13-1-6-5-11-6-18-2-5h-2l-2-4-8-6-2-2 1-4-1-5-4-5-5-8v-3l-4-1-8-8v-2l-4-2-5-5h-2l-3-3-2-1v-2l-6-1-8-3-5-3-3-3z" fill="#456E8A"/>
<path transform="translate(251,364)" d="m0 0h1l1 44 1 8 1 25-2 43 1 12 2 10v37l2 17 1 75 2 16 2 7-1 4 1 7h-2l-5-13-4-16-1-6z" fill="#13233B"/>
<path transform="translate(781,680)" d="m0 0 1 4-2 2 1 3-3 5-6 8-4 6-3 3-2 5-7 6-4 4-8 6-9 5-7 5-12 6-9 4-10 3-4 1-13 2-9 2h-15l-22 1-7-1-1 1-14 1h-17l-20 1-7 4-12 12h-2l-2 5-4 3h-2l-1 3-4 4h-2l-1 4-3 1-5 6-3 6-7 1-8-7-2-5 2-2 8 7h5l6-5 7-8 11-12 13-13 10-7 5-2 8-1 73-1 23-2 21-5 18-8 16-9 13-11 8-8 9-12 11-17z" fill="#F1F4F1"/>
<path transform="translate(758,754)" d="m0 0 2 1-13 9-14 8-15 6-20 6-19 4-8 1-19 1-66 1-6 3-16 16-7 8-14 15-6 7-7 5-12-1-2-1 1-2 10-1 6-4 10-9 7-8 7-7 16-20 5-4 4-2 6-1 77-2 19-2 22-5 15-6 5-1h2l9-2 5-2 1-3z" fill="#7592A1"/>
<path transform="translate(787,304)" d="m0 0 4 5 1 7 4 10 2 18v74l-1 16v18l1 4v88l-1 3v13l1 14v44l-1 10v2h-2v11l1 2h-3v-311l-4-17-2-7z" fill="#D7DEDE"/>
<path transform="translate(512,357)" d="m0 0h19l20 3 16 6 16 8 14 10 12 11 10 14 8 14 5 11 5 17 2 11v19l-3 21-5 16-5 10-3 1 2-7 5-12 1-7h2l-1-7 1-14 1-7-3-28-5-15-2-4-3-3-4-9-2-8-3-1-6-9-7-6-3-4-3-1v-2l-4-2-9-5-3-3-19-9-15-3-16-2h-17l-15 3-8 3-7 3h-3l-1 2-11 5h-2v2l-9 4 1-4 13-8 15-7 19-6z" fill="#306586"/>
<path transform="translate(559,533)" d="m0 0h6l5 3 8 2 2 1v11l-4 6-10 8-6 2h-4v2l-14 6h-15l-4-3-3-2 7-3 9-2 10-7 3-3 2-7 4-10h2z" fill="#1F344D"/>
<path transform="translate(285,710)" d="m0 0 4 2 16 16 13 9 16 8 16 6 16 4 12 1 82 1 15 1 6 4 6 6v3l-6-2-5-3v-2l-58-1-32-1-22-3-12-2-26-10-14-8-7-7-1-2-4-1-1-2-5-5-4-5v-2h-2z" fill="#F0F3F0"/>
<path transform="translate(336,782)" d="m0 0 11 3 8 3 1 3 6 1 2 1v3l6 2 5 6 16 7 10 4 6 3 10 3 6 1 18 1 23 1 17-1h10l5 4 7 9 3 3-1 2-7-6-3-1h-9l-5-3-16-1-3-1-22-1-14-1h-15l-25-12-16-8-9-6v-2l-3-1v-2l-4-2-11-6-4-1v-2l-3-1z" fill="#446D89"/>
<path transform="translate(546,200)" d="m0 0h38v2l16-1h10v-1h14l33 1v3 1h-271v-1l32-1 2-2h44v1l-6 1h16l2-2z" fill="#88A2AB"/>
<path transform="translate(667,617)" d="m0 0h1v7l-7 7-3 4-2 5-8 5-8 6-6 4-4 1 1-2-10 3-6 5-13 4-1 3-10 4h-11l-2-1 1-3 8-5 19-9 7-3 7-2 13-8h2l2-4 9-5 4-2 1-4 9-5 4-3h3z" fill="#90A8AF"/>
<path transform="translate(753,681)" d="m0 0 1 2-2 3 1 2-9 11-11 11-14 10-16 8-21 7-20 3-72 1-17 2-6 2-10 6-1-3 5-5 5-4 10-2 52-2 42-1 16-3 10-3 8-2v-2l7-1v-2l9-5h2v-2l5-3h2l2-4 3-3h2l2-4 4-2 2-5h2l1-4 4-5z" fill="#7794A2"/>
<path transform="translate(508,530)" d="m0 0h29l6 4 3 5-1 7-4 4-9 3h-14l-9-1-6-5-1-2v-7l4-6z" fill="#F5F9F6"/>
<path transform="translate(299,691)" d="m0 0 7 6 7 7 11 8 14 8v2l8 2 8 3 20 6h34l28-1h24l20 2 4 2-1 2-5 1-96-1-18-3-22-7-18-10-10-8-7-8-8-9z" fill="#819CA7"/>
<path transform="translate(485,743)" d="m0 0 4 2 10 9 8 10 9 10 6 6-1 4-1-2h-5l-5-4-7-3-6-5h-5v-2l-5 1-7-7-2-4-4-2 1-4 1-6h2v-2z" fill="#1F354E"/>
<path transform="translate(490,311)" d="m0 0h10l-3 3-21 5-16 6-16 8-12 8-16 13-12 11-13 17-5 8-8 16-3 5-8 25-4 26-1 16-2 3v-19l1-16 6-23 5-15h2l1-6 3-6 11-17 11-14 18-18 13-10 11-7 19-10 16-5z" fill="#B7D4D7"/>
<path transform="translate(492,336)" d="m0 0h12l4 3-20 4-16 5-17 8-16 12-13 11-10 12-8 12-6 10-7 17-5 21-2 1-1 6h-1v-15l2-5h1l3-12 4-9 3-7h2l3-9 2-3h2l1-6h3l2-5 2-3h2l1-4 5-6 3-3 3-2h3l2-4 8-7h2v-2l7-4 14-5 15-7h4l1-2z" fill="#306486"/>
<path transform="translate(391,445)" d="m0 0 2 4 1 5-2 6 3 3v3l3 2v8l3 14-1 20 1 5-4 2h-3l-5-17-2-12v-25l2-12z" fill="#C3F4F6"/>
<path transform="translate(824,490)" d="m0 0h1l1 14v136l-4 22-6 20-2 3-3 9h-2l1-6 5-12 4-16v-13l2-11 1-20 1-111z" fill="#90A8AF"/>
<path transform="translate(248,396)" d="m0 0 2 4v222l-1 11h-1l-1-8v-161z" fill="#90A8AF"/>
<path transform="translate(453,768)" d="m0 0 1 2 2 1-2 2 6 3v2 1l11 5 5 2 2 2-1 6-3-1v-2l-4-2-13-4-50-2 1-4 1-1 15-1 4-1h8v-2l4-2 8-1z" fill="#C9D7D8"/>
<path transform="translate(463,440)" d="m0 0h14l9 4 7 4 1 4h2l5 11v13l-3 5h-2v3h-2l2-7v-13l-5-8-6-5-8-3h-9l-8 3-6 4-5 7-1 3v12l1 4-4-2-2-3v-8l3-9 4-9 5-4 4-4z" fill="#58839C"/>
<path transform="translate(488,768)" d="m0 0h4v2l5-1 9 7 7 3 2 2 6 2 1-2 4 1-3 2 3 9 2 7 2 1-5 5h-5l-7-7-10-13-13-13z" fill="#14243D"/>
<path transform="translate(610,772)" d="m0 0h6l4 2h3 5l9 7 3 3-11 1-41 1-8 2-6 4-3 3-2-1 4-6 6-3 8-6 5-2 14 1-1-3 1-2z" fill="#C9D6D7"/>
<path transform="translate(795,445)" d="m0 0h2v7l1 4v88l-1 3v13l1 14v44l-1 10v2h-2v11l1 2h-3v-13l1-2z" fill="#FAFCF8"/>
<path transform="translate(662,526)" d="m0 0h1v8l-3 6-5 11-6 7-6 11-5 9-7 8-7 6-5 5-4 3h-3v2l-3 1-1 2-9 5-5 3-6 1v2l-4 2h-4v2l-10 4-12 2 2-2 10-2v-4l14-6h4v-2l5-2h3v-2l6-4 11-7 7-6h2l1-3 7-6 5-7h2l2-4 4-7h2l2-6 4-4 3-6 3-8 3-5z" fill="#2E6689"/>
<path transform="translate(565,441)" d="m0 0h15l6 2 2 1v2l6 2 3 3 2 5 5 10v10l-1 3-3 1-1-5v-9l-4-8-8-7-9-3h-7l-9 3-8 7-4 8v11l-2 3-4-9 1-9 3-5 4-4 2-4h2v-2z" fill="#55819A"/>
<path transform="translate(387,548)" d="m0 0 5 4 5 9 3 4 3 5 7 6 4 4 5 4v2l4 2 7 8 8 5 9 6 16 8 19 8 13 4 22 2h13l14-1 8-2h6l-1 2-23 4h-18l-23-3-18-6-13-5-9-5-20-11v-2l-4-2-4-5-7-5v-2l-4-2-3-1v-2h-2l-7-8-5-5-3-6-4-4-4-9z" fill="#456E8A"/>
<path transform="translate(540,310)" d="m0 0 15 1 26 8 14 7 11 6 18 13 8 7 11 11 9 11v2h2l10 15-1 4-12-17-11-13-7-8-14-12-12-8-14-8-4-2v-2l-8-2-19-6-16-3-7-1z" fill="#BDCFD1"/>
<path transform="translate(462,436)" d="m0 0h19l13 7 5 5 1 5v7l-3-4-1-4h-2l-2-4-12-6-3-1h-14l-5 3h-2l-2 4-4 3-4 11-1 5-2 1 2 10 1 2-3-1-3-3v-14l6-14 8-8z" fill="#446D8A"/>
<path transform="translate(626,429)" d="m0 0 5 2 6 20 2 11v19l-3 21-5 16-5 10-3 1 2-7 5-12 1-7h2l-1-7 1-14 1-7-3-28-5-15z" fill="#336788"/>
<path transform="translate(565,437)" d="m0 0h12l12 2 8 6 7 10 1 2v7l-2 2-7-14v-3l-6-2-2-1v-2l-8-2h-15l-7 5h-2v2l-2 1-3 5-2 2-3 5-1 9-2 1-1-10 4-9 10-11z" fill="#446D89"/>
<path transform="translate(536,336)" d="m0 0 18 1 3 1 2 2h5v2l13 1 7 3v3l2 1v1l2 1 1-1 6 1 1 5 4 1 5 5 6 4-3 1-6-3-16-10-20-9-19-5-15-2z" fill="#2C6588"/>
<path transform="translate(312,726)" d="m0 0 5 1 5 3 5 4 7 4 9 2 4 3 6 2 4 3v2l13 2v2l-10-1-17-5-7-1-15-7 1-2-6-4v-2l-4-2-2-3z" fill="#2D4D6A"/>
<path transform="translate(602,734)" d="m0 0h15v1l49 1-4 2-72 1-17 2-6 2-10 6-1-3 5-5 5-4 10-2z" fill="#7D98A4"/>
<path transform="translate(436,732)" d="m0 0h24l20 2 4 2-1 2-5 1-62-2 4-2-12-1v-1z" fill="#7C97A5"/>
<path transform="translate(677,576)" d="m0 0 1 3-1 5-7 8-4 6-8 6-4 6-5 5-3 1-1 4-3 3-6 2-1 3-7 3-4 1 1-4 5-3 5-5 11-9 15-15 9-11z" fill="#C1CBCB"/>
<path transform="translate(424,376)" d="m0 0 2 1-2 4-10 13-9 14-7 14-5 15-3 14-2 1-1 6h-1v-15l2-5h1l3-12 4-9 3-7h2l3-9 2-3h2l1-6h3l2-5 2-3h2l2-4z" fill="#316282"/>
<path transform="translate(573,370)" d="m0 0 4 1 12 7 10 8 10 9 10 14 8 14 3 6-1 3-4-4-4-3-4-9-2-8-3-1-6-9-7-6-3-4-3-1v-2l-4-2-9-5-2-4-5-3z" fill="#2E6182"/>
<path transform="translate(484,343)" d="m0 0 5 1-3 3-10 4-6 2-3 3-10 3-10 6-9 7-13 10-7 10h-2l-2 4v-3l10-13 12-11 16-12 16-8 13-5z" fill="#C3F1F4"/>
<path transform="translate(753,681)" d="m0 0 1 2-2 3 1 2-9 11-11 11-14 10-6 3h-3l-9 4-2-1 5-2v-2l7-1v-2l9-5h2v-2l5-3h2l2-4 3-3h2l2-4 4-2 2-5h2l1-4 4-5z" fill="#6B899B"/>
<path transform="translate(257,296)" d="m0 0 4 3-5 16-5 25-1 26-3-3v-27l3-18 6-20z" fill="#8FA8AF"/>
<path transform="translate(384,387)" d="m0 0 1 2-7 12-1 7-4 9-6 19-4 26-1 16-2 3v-19l1-16 6-23 5-15h2l1-6 3-6z" fill="#BDD3D6"/>
<path transform="translate(775,626)" d="m0 0h1v8l-6 22-8 18-6 10-2 3-3-1 2-4-1-2 12-22 3-12h1v7l2-8 4-14z" fill="#7894A2"/>
<path transform="translate(365,442)" d="m0 0 3 1v43l1 10 3 12 2 9 4 7 2 7-1 4-8-18-3-9-2-11-1-13-1-36z" fill="#466F8B"/>
<path transform="translate(612,368)" d="m0 0h5v2h2l1 3 4 4 6 2 3 4 5 2 4 4-8 2 1 3-5-1-10-13-10-9v-2z" fill="#2E6486"/>
<path transform="translate(248,396)" d="m0 0 2 4v99l-2-4-1-10v-21z" fill="#9AB0B6"/>
<path transform="translate(557,812)" d="m0 0h4l-2 4-7 7-7 8-8 9-7 5-12-1-2-1 1-2 10-1 6-4 10-9 7-8z" fill="#8DA8B1"/>
<path transform="translate(565,765)" d="m0 0m-1 1m-2 1 2 1-20 20-3 6h-2l-1 4-3 1-5 6-3 6-7 1-8-7-2-5 2-2 8 7h5l6-5 7-8 11-12z" fill="#E9EDEB"/>
<path transform="translate(795,560)" d="m0 0h2l1 14v44l-1 10v2h-2v11l1 2h-3v-13l1-2z" fill="#F6F9F5"/>
<path transform="translate(597,644)" d="m0 0h2v3l-15 5-4 3-18 5-9 2-2 2h-9v-2l-9-1v-1l20-2 23-6 16-6z" fill="#C1CBCB"/>
<path transform="translate(629,425)" d="m0 0 6 8 1 7v4h2v4l3 1v29l1 8-2 7-3 12-2 1 2-17 1-8v-19l-4-19-5-14z" fill="#C3F4F6"/>
<path transform="translate(709,239)" d="m0 0 5 1 16 10v2l4 2 8 7v2h2l7 8 7 9 5 5 1 7-4-1-10-16-13-15-11-9-14-9z" fill="#192B43"/>
<path transform="translate(824,426)" d="m0 0 2 3v55l-3 3v-55z" fill="#9AAFB5"/>
<path transform="translate(557,809)" d="m0 0 1 3-13 13-5 6-8 7-5 3h-7l-1-6 4-1 6 1 3-5h3v-2l4-1v-2l4-1 4-6 7-5 1-2h2z" fill="#C9D6D7"/>
<path transform="translate(620,531)" d="m0 0h2l-1 6-9 13-13 14-11 8-5 1 2-5 9-5 13-13h2v-2h2l2-5 6-10z" fill="#2E6385"/>
<path transform="translate(449,590)" d="m0 0 4 1 16 8 16 6 21 5-3 2h-10l-10-4-10-3-24-12z" fill="#306586"/>
<path transform="translate(404,734)" d="m0 0h18l-2 2 32 1v1h-70l-2-3z" fill="#6A879A"/>
<path transform="translate(670,514)" d="m0 0 2 3-4 9-2 6h-2l-1 9h-2l-3 9-10 14-7 11-2 1 2-5 6-10 4-7 3-1 2-7 6-12 1-8 6-11z" fill="#456E8A"/>
<path transform="translate(619,344)" d="m0 0 5 1 8 7 11 11 9 11v2h2l10 15-1 4-12-17-11-13-7-8-14-12z" fill="#D0E4E5"/>
<path transform="translate(729,230)" d="m0 0 4 1 10 8 14 14 9 12 11 18 1 4h-2l-4-8-14-20v-2h-2l-7-8-9-7-2-4-8-6z" fill="#182B43"/>
<path transform="translate(586,596)" d="m0 0 2 1-10 7-19 6-6 2-18 3 3-4 18-4 17-6 8-4z" fill="#2F6586"/>
<path transform="translate(418,349)" d="m0 0 2 1-17 16-12 16-5 8-7 14h-2l1-4 6-11 3-7 9-12 9-10 7-7 5-3z" fill="#B2DADE"/>
<path transform="translate(489,632)" d="m0 0 27 3h14l11-1 3 2-2 2h-41l-11-3z" fill="#7491A1"/>
<path transform="translate(335,212)" d="m0 0 2 1-3 1v4l-17 9-12 9-4 1-4 2 5-6 6-5h2l1-3 11-6z" fill="#91A9AF"/>
<path transform="translate(761,747)" d="m0 0 3 1-4 2-2 5-15 8-4 4-5 2-9 2 1-3 17-9z" fill="#648396"/>
<path transform="translate(399,413)" d="m0 0 1 2-3 10-4 12-3 14-2 1-1 6h-1v-15l2-5h1l3-12 4-9z" fill="#2F6485"/>
<path transform="translate(602,734)" d="m0 0h15v1l-40 2 5 1-4 2-10 2-11 7-1-3 5-5 5-4 10-2z" fill="#9BAFB5"/>
<path transform="translate(495,360)" d="m0 0h5l-3 2-12 4-2 3-6 1-1 2-11 5h-2v2l-9 4 1-4 13-8 15-7z" fill="#305F7F"/>
<path transform="translate(264,729)" d="m0 0 4 2v2l4 2 7 7v4h2v2h2v2l4 2 5 4 7 7-5-2-9-7v-2l-5-2-10-9-2-5-4-5z" fill="#90A8AF"/>
<path transform="translate(492,336)" d="m0 0h12l4 3-30 6h-5l5-4 7-1 1-2z" fill="#336888"/>
<path transform="translate(513,817)" d="m0 0 4 1 2-1 2 4 3 2h2l3-2 2 4-1 5-5 1h-7v-3l-2-2 2-1v-3l-2 1-4-4z" fill="#C9D7D8"/>
<path transform="translate(672,458)" d="m0 0h2l2 11v13l-2 13-3 9-2 13-5 9-1-3 3-6 2-13 2-3 3-14v-20z" fill="#2C6689"/>
<path transform="translate(512,357)" d="m0 0h19l-4 3-17 1-15 3-8 3-3-1 10-4 8-4z" fill="#316586"/>
<path transform="translate(762,291)" d="m0 0 3 3 6 12 7 27-1 9h-1l-2-11-7-26-5-11z" fill="#182B43"/>
<path transform="translate(578,574)" d="m0 0 4 1-5 4-15 7-13 4-4-2 5-2 4-1 7-3 2 1 1-3 7-3 5-2z" fill="#2E6486"/>
<path transform="translate(758,754)" d="m0 0 2 1-13 9-14 8-15 6-6 2h-5l3-2 16-6 14-7h2l1-3z" fill="#87A5B0"/>
<path transform="translate(414,355)" d="m0 0 3 1-4 5-2 1-2 4-5 5-5 4-3 5-2 2-3-1 9-12 9-10z" fill="#54809A"/>
<path transform="translate(775,614)" d="m0 0h1l1 13-2 4-4 14-3 9-1-3 2-15 4-15z" fill="#7B97A4"/>
<path transform="translate(436,555)" d="m0 0 4 2 5 5 11 9 17 10 5 3-2 1-7-2-5-4-5-3-6-4-9-5-3-5-5-4z" fill="#BFEDF0"/>
<path transform="translate(536,336)" d="m0 0 18 1 3 1 2 2h5v3l-1 2-16-4-15-2z" fill="#3C6C8A"/>
<path transform="translate(299,691)" d="m0 0 7 6 7 7 11 8 8 5-3 1-3-2v2l-5-2-7-6-7-8-8-9z" fill="#7D99A5"/>
<path transform="translate(712,721)" d="m0 0v3l-17 7-13 4-7-1 1-3 14-3 10-3 1 1z" fill="#6D8A9C"/>
<path transform="translate(609,600)" d="m0 0h3v2l-3 1-1 2-9 5-5 3-6 1v2l-4 2h-4v2l-10 4-12 2 2-2 10-2v-2l12-4 4-3 8-3h3v-2l8-6z" fill="#456E8A"/>
<path transform="translate(443,358)" d="m0 0m-1 1m-1 1m3 0 3 1-4 4-10 8-7 5-2-4 3-3 3-2h3l2-4 6-4z" fill="#336888"/>
<path transform="translate(420,201)" d="m0 0h44v1l-17 2h-24l-5-1z" fill="#90A8AF"/>
<path transform="translate(262,669)" d="m0 0h2l7 14 6 10 8 11 6 8v3l-9-10-11-16-9-17z" fill="#182B43"/>
<path transform="translate(366,486)" d="m0 0h2l1 10 3 12 2 9 4 7 2 7-1 4-8-18-3-9-2-11z" fill="#456E8A"/>
<path transform="translate(586,351)" d="m0 0 2 1 1-1 6 1 1 5 4 1 5 5 6 4-3 1-6-3-16-10-3-3z" fill="#336383"/>
<path transform="translate(326,716)" d="m0 0 10 3 2 1v2l8 2 1 3 9 2 2 2-10-1-9-4-13-7z" fill="#6D8A9B"/>
<path transform="translate(514,526)" d="m0 0h22l3 3-4 1h-25l-1-2z" fill="#31688A"/>
<path transform="translate(493,484)" d="m0 0 1 4-2 3h-2l-1 3-8 5h-13l-6-2 4-2h12l10-5z" fill="#4F7C97"/>
<path transform="translate(550,822)" d="m0 0 1 3-8 8-6 7-7 5-12-1-2-1 1-2 9 1 6-2 5-5z" fill="#90B3C0"/>
<path transform="translate(598,479)" d="m0 0 2 3-6 9-7 6-6 2h-5l-4-1v-2l10-1 9-6 6-8zm-30 18 4 1-2 1z" fill="#57829A"/>
<path transform="translate(591,788)" d="m0 0h18v1l-23 2-6 3-17 17-1-3 15-15 6-4z" fill="#8EACB7"/>
<path transform="translate(540,310)" d="m0 0 15 1 19 6-4 1-8-1-16-3-7-1z" fill="#ACCDD3"/>
<path transform="translate(603,601)" d="m0 0m-1 1m-1 1v3l-4 2v2l-12 5-8 4-7 1v-2l14-6h4v-2l5-2h3v-2z" fill="#2C6689"/>
<path transform="translate(435,338)" d="m0 0 3 3h-2l-1 2-6 4-3 1v2l-5 4-5 2v-3l13-11z" fill="#3F6E8C"/>
<path transform="translate(490,311)" d="m0 0h10l-3 3-13 3-13 2-6 2-4-1 16-5z" fill="#B3D3D8"/>
<path transform="translate(662,526)" d="m0 0h1v8l-3 6-5 11-6 7h-2l2-4 3-5 3-4 2-7 3-5z" fill="#2C6689"/>
<path transform="translate(514,847)" d="m0 0 14 1 3 7 2 3-7-2v-2l-7-2-5-3z" fill="#53819B"/>
<path transform="translate(363,442)" d="m0 0 1 2v12l-1 6-1 16-2 3v-19l1-16z" fill="#B9CBCE"/>
<path transform="translate(639,478)" d="m0 0h2l1 8-2 7-3 12-2 1 2-17z" fill="#C1F0F2"/>
<path transform="translate(384,387)" d="m0 0 1 2-7 12-1 7-4 9-2 5-1-4 2-7v-3h2l1-6 3-6z" fill="#C4D3D5"/>
<path transform="translate(820,660)" d="m0 0h1l-1 10-4 12-2 3-3 9h-2l1-6 5-12 4-15z" fill="#859FA9"/>
<path transform="translate(727,709)" d="m0 0 2 1-13 10v2l-3 1h-3l-9 4-2-1 5-2v-2l7-1v-2l9-5h2v-2z" fill="#4B6B83"/>
<path transform="translate(629,558)" d="m0 0 4 1-5 5-4 2 2-4zm-6 8m-1 1 2 1v3l-4 3h-2v2l-4 3-2-1 5-7z" fill="#315D7B"/>
<path transform="translate(579,356)" d="m0 0 4 1 6 7-1 4-6-2-3-4z" fill="#B6FBFE"/>
<path transform="translate(784,301)" d="m0 0 2 1 7 24v12h-1l-4-20-4-13z" fill="#21354D"/>
<path transform="translate(759,258)" d="m0 0 3 1 11 17 5 9v2h-2l-4-8-7-10-6-8z" fill="#1C314A"/>
<path transform="translate(309,232)" d="m0 0 2 1-8 7-8 8h-2l-2 4-3 3-2-1 7-8 8-8z" fill="#192C44"/>
<path transform="translate(335,212)" d="m0 0 2 1-3 1v4l-17 9-6 4-2-1 13-9 4-1 2-4z" fill="#93AEB8"/>
<path transform="translate(619,344)" d="m0 0 5 1 8 7 9 9-2 2-8-8-11-9z" fill="#C5E5E6"/>
<path transform="translate(478,604)" d="m0 0 7 1 21 5-3 2h-10l-10-4v-2l-5-1z" fill="#346383"/>
<path transform="translate(558,316)" d="m0 0 7 1 13 4v3h-5l-8-3-9-3z" fill="#336686"/>
<path transform="translate(475,317)" d="m0 0 4 1-19 7-9 4-2-1 4-4 6-3z" fill="#C1EAEC"/>
<path transform="translate(493,658)" d="m0 0 22 2 1 2-6 1h-11l-7-3z" fill="#C1CBCB"/>
<path transform="translate(390,437)" d="m0 0 2 3-2 11-2 1-1 6h-1v-15l2-5z" fill="#356B8C"/>
<path transform="translate(790,654)" d="m0 0 1 3-6 18v3l-2 2-2-1 1-5 6-18z" fill="#DFE6E5"/>
<path transform="translate(495,360)" d="m0 0h5l-3 2-12 4-2 3-10 2-4 1 3-3 14-6z" fill="#315C7A"/>
<path transform="translate(526,358)" d="m0 0h13l8 2-4 3-16-2z" fill="#2D6081"/>
<path transform="translate(337,776)" d="m0 0 9 2 3 2h-6l13 3v3l-17-4-2-2 2-3z" fill="#7491A1"/>
<path transform="translate(347,726)" d="m0 0 7 1 16 5-3 1v2l-10-2-5-2 4-1-9-3z" fill="#829CA8"/>
<path transform="translate(768,313)" d="m0 0 3 3 4 15-1 7-2-4-3-11z" fill="#859FA9"/>
<path transform="translate(564,316)" d="m0 0 11 1 12 5 5 2-3 2-24-8z" fill="#B7E5E8"/>
<path transform="translate(579,322)" d="m0 0 10 3v2h2l1 5-6-2-5-3-3-3z" fill="#366C8C"/>
<path transform="translate(691,551)" d="m0 0 2 4-5 9-3 3-1 3h-2l-1 4-2-1z" fill="#C2CCCD"/>
<path transform="translate(631,508)" d="m0 0h2l-1 7-6 13-3 1 2-7 5-12z" fill="#2F6181"/>
<path transform="translate(505,372)" d="m0 0h5l-2 5h-14l1-3z" fill="#1F344D"/>
<path transform="translate(614,400)" d="m0 0 6 1 3 3-2 7h-2l-5-8z" fill="#C3F4F7"/>
<path transform="translate(390,380)" d="m0 0 1 2-5 8-7 14h-2l1-4 6-11 3-7z" fill="#BEE9EC"/>
<path transform="translate(735,704)" d="m0 0h2l-2 4-16 12-4 1 5-5 13-10z" fill="#708E9F"/>
<path transform="translate(775,626)" d="m0 0h1v8l-6 22h-2l1-9 4-11z" fill="#839DA8"/>
<path transform="translate(620,531)" d="m0 0h2l-1 6-9 13-2 1 2-6 7-12z" fill="#316080"/>
<path transform="translate(612,368)" d="m0 0h5v2h2l1 4h-2v2h2v2l-5-2-5-5v-2z" fill="#356685"/>
<path transform="translate(626,526)" d="m0 0 2 2-6 11-8 12-3-1 7-10z" fill="#BFEEF1"/>
<path transform="translate(756,279)" d="m0 0 4 2 4 7-1 4-3-1-5-8z" fill="#1D324A"/>
<path transform="translate(340,779)" d="m0 0 15 1 6 2 8 1v1h-13l-16-4z" fill="#5B7A90"/>
<path transform="translate(566,737)" d="m0 0 4 1v2l-3 2-5 4-5 3-1-3 5-5z" fill="#8BA3AC"/>
<path transform="translate(743,695)" d="m0 0 1 2h-2l-2 6-3 2-8 4 2-4 3-3h2l2-4z" fill="#57778C"/>
<path transform="translate(556,607)" d="m0 0 4 1-11 3v2l-14 2 3-4z" fill="#34607E"/>
<path transform="translate(638,377)" d="m0 0 3 1 4 4 2 8-4-2-6-4z" fill="#2C6587"/>
<path transform="translate(434,371)" d="m0 0m-1 1m-1 1m-2 1 2 1-5 5-4 5-5 7h-2l-2 4v-3l10-13z" fill="#C0EFF2"/>
<path transform="translate(499,451)" d="m0 0 3 2 2 6v7l-1 1-1 7h-1z" fill="#336889"/>
<path transform="translate(382,396)" d="m0 0 2 4-7 14h-3l1-5z" fill="#56829B"/>
<path transform="translate(256,305)" d="m0 0h1l-1 10-4 15-2 1 3-17z" fill="#AFBEC2"/>
<path transform="translate(588,571)" d="m0 0m-2 1 2 1-4 4-5 1v2l-5 3-6 1v2h-3v-2l17-9z" fill="#BEEAED"/>
<path transform="translate(424,376)" d="m0 0 2 1-2 4-8 10-2-4 2-3h2l2-4z" fill="#2E6283"/>
<path transform="translate(712,721)" d="m0 0v3l-14 6-2-1-6 1v-2l10-3 1 1z" fill="#698799"/>
<path transform="translate(818,656)" d="m0 0h2l-1 10-2 6-4 3 1-5 3-12z" fill="#7A96A4"/>
<path transform="translate(479,585)" d="m0 0 9 2 14 3-2 2h-6l-13-4z" fill="#C1EDEF"/>
<path transform="translate(512,357)" d="m0 0h19l-4 3-16 1z" fill="#306687"/>
<path transform="translate(448,327)" d="m0 0 2 1v2l-13 7h-3l1-3z" fill="#BDD1D3"/>
<path transform="translate(767,646)" d="m0 0h1v8l1 4-3 6h-3l-1-2 3-8z" fill="#7C97A5"/>
<path transform="translate(618,633)" d="m0 0h3v2l-6 4-7 3-5 2-1-2z" fill="#B8CBCD"/>
<path transform="translate(586,596)" d="m0 0 2 1-10 7h-8l3-3 8-4z" fill="#306282"/>
<path transform="translate(271,270)" d="m0 0 3 1-5 10-1-2-4 7-1-4 4-8h2z" fill="#9AB2BA"/>
<path transform="translate(761,747)" d="m0 0 3 1-4 2-2 5-6 3v-5z" fill="#628195"/>
<path transform="translate(397,521)" d="m0 0 1 2 3-1 1 5 1 11-3-4-4-12z" fill="#BFEFF2"/>
<path transform="translate(536,309)" d="m0 0h6v3l-31-1v-1z" fill="#C3EAEC"/>
<path transform="translate(407,457)" d="m0 0 2 3v13l-1 6h-1l-1-9v-9z" fill="#386B8A"/>
<path transform="translate(565,278)" d="m0 0h7l3 3v3h-6l-4-3z" fill="#CAD8D9"/>
<path transform="translate(278,267)" d="m0 0 2 2-4 7-6 5-1-2 5-9z" fill="#162840"/>
<path transform="translate(600,466)" d="m0 0 4 3v7l-1 3-3 1-1-5z" fill="#4B748E"/>
<path transform="translate(557,809)" d="m0 0 1 3-13 13-1-3 4-5 6-4 1-2h2z" fill="#C6D3D3"/>
<path transform="translate(738,762)" d="m0 0 2 1-3 2 2 2-5 2-9 2 1-3z" fill="#678699"/>
<path transform="translate(262,669)" d="m0 0h2l7 14 1 4-3-1-7-14z" fill="#192D46"/>
<path transform="translate(629,425)" d="m0 0 6 8 1 9-2 1-5-14z" fill="#BFF0F3"/>
<path transform="translate(373,415)" d="m0 0h3l-2 10-1 4h-2l-1-5z" fill="#4A748E"/>
<path transform="translate(418,349)" d="m0 0 2 1-15 14-1-3 8-8 5-3z" fill="#B0E8ED"/>
<path transform="translate(555,339)" d="m0 0 9 1v3l-1 2-13-3 3-2 2 1z" fill="#446F8B"/>
<path transform="translate(620,314)" d="m0 0 3 1 1 2 7 4 2 4-4-1-10-7z" fill="#C1CACA"/>
<path transform="translate(257,296)" d="m0 0 4 3-3 9-4-1 2-9z" fill="#96AFB7"/>
<path transform="translate(765,713)" d="m0 0 3 2-8 5-4 5-7 4 1-3 5-2 2-4 6-5h2z" fill="#C7D4D4"/>
<path transform="translate(549,589)" d="m0 0h4v2l-9 3h-9l1-2z" fill="#C3F3F5"/>
<path transform="translate(758,754)" d="m0 0 2 1-13 9h-5l3-3z" fill="#809EAB"/>
<path transform="translate(403,371)" d="m0 0v3l-11 12-2 1-1-3 1-2 5-2 4-6z" fill="#47708B"/>
<path transform="translate(480,735)" d="m0 0 4 1-1 2-5 1-19-1v-1h21z" fill="#8CA5AD"/>
<path transform="translate(365,432)" d="m0 0h2l-2 16-2 2v-12z" fill="#BDE2E5"/>
<path transform="translate(481,340)" d="m0 0 5 1 2 2-10 2h-5l5-4z" fill="#3D6E8C"/>
<path transform="translate(670,732)" d="m0 0h5v2l6-1-3 3h-11z" fill="#7995A3"/>
<path transform="translate(572,345)" d="m0 0 5 2 8 4-3 2-12-5 2-1z" fill="#466E89"/>
<path transform="translate(299,691)" d="m0 0 7 6 7 7-2 2-10-10z" fill="#88A1AB"/>
<path transform="translate(753,681)" d="m0 0 1 2-7 10h-2l2-6 4-5z" fill="#607E92"/>
<path transform="translate(772,636)" d="m0 0 1 3-3 8-2 7-1-3 1-10h2l1-4z" fill="#6A889A"/>
<path transform="translate(787,304)" d="m0 0 4 5 1 7 1 10-2-4-4-14z" fill="#DFE5E3"/>
<path transform="translate(488,841)" d="m0 0 17 1 1 2-8 1-2-1h-9z" fill="#54819B"/>
<path transform="translate(560,584)" d="m0 0 3 1-10 4-6 1-2-2 5-2 2-1h6z" fill="#325F7D"/>
<path transform="translate(655,564)" d="m0 0 2 1-10 13-2 1 1-4 4-4v-3z" fill="#7D9AA8"/>
<path transform="translate(414,388)" d="m0 0 2 1-3 7-3 3-2-4 1-3h3z" fill="#326383"/>
<path transform="translate(284,258)" d="m0 0 1 2-4 8-4 1-2 1 2-4 5-7z" fill="#1C2F47"/>
<path transform="translate(341,724)" d="m0 0 9 3 8 3-3 1-9-2-4-2z" fill="#41627C"/>
<path transform="translate(556,313)" d="m0 0h6l12 4-4 1-8-1-6-1z" fill="#9CBEC8"/>
<path transform="translate(636,929)" d="m0 0 5 3-3 4-4-1v-5z" fill="#708E9F"/>
<path transform="translate(449,590)" d="m0 0 4 1 7 4-1 2-4-1-6-3z" fill="#316181"/>
<path transform="translate(497,313)" d="m0 0 8 1v1l-11 2h-6v-2z" fill="#43728F"/>
<path transform="translate(709,239)" d="m0 0 5 1 11 7-2 2-11-7z" fill="#273C54"/>
<path transform="translate(536,833)" d="m0 0m-1 1 1 3-3 1-1 3-6 2h-5l1-2 9-3z" fill="#809BA7"/>
<path transform="translate(544,829)" d="m0 0v3l-7 8-5 3 2-4z" fill="#8DB1BF"/>
<path transform="translate(775,696)" d="m0 0h2v2h-2l-1 5h-2l-1 5-2 2-1-3z" fill="#C6D1D2"/>
<path transform="translate(624,589)" d="m0 0 2 1-5 5-6 5-3-1 4-1 2-4h2l2-4z" fill="#456E8A"/>
<path transform="translate(599,360)" d="m0 0 5 2 7 5-3 1-6-3-4-4z" fill="#3C627E"/>
<path transform="translate(774,326)" d="m0 0h2l2 7-1 9h-1l-2-11z" fill="#172A42"/>
<path transform="translate(235,692)" d="m0 0 3 1 3 7 3 5-1 3-6-10z" fill="#C7D3D4"/>
<path transform="translate(820,660)" d="m0 0h1l-1 10-2 6-2-1 2-9z" fill="#839DA8"/>
<path transform="translate(609,548)" d="m0 0 2 1-3 5-3 4h-2l-1-3 5-5h2z" fill="#2F6383"/>
<path transform="translate(493,484)" d="m0 0 1 4-2 3h-2l-1 3-4 1v-3l6-5z" fill="#59839B"/>
<path transform="translate(435,338)" d="m0 0 3 3h-2l-1 2-5 3-2-1 1-3z" fill="#43708D"/>
<path transform="translate(347,726)" d="m0 0 7 1 7 3v2l-4 1-5-2 4-1-9-3z" fill="#6F8C9C"/>
<path transform="translate(466,578)" d="m0 0 5 2 7 4-2 1-7-2-3-3z" fill="#C2F4F7"/>
<path transform="translate(669,539)" d="m0 0 1 3-4 8-3 3v-5h2l1-4z" fill="#7C9AA8"/>
<path transform="translate(369,427)" d="m0 0 3 4-2 7-2 1-1-6z" fill="#43708C"/>
<path transform="translate(679,204)" d="m0 0 17 4v3l-17-5z" fill="#90AAB2"/>
<path transform="translate(526,845)" d="m0 0 3 1-1 2h-12l-2-2z" fill="#4B748E"/>
<path transform="translate(516,841)" d="m0 0 10 1 5-1-1 4-12-1-2-1z" fill="#90AEB8"/>
<path transform="translate(465,787)" d="m0 0 4 2 1 2h-4v2l-5-2z" fill="#8FAAB3"/>
<path transform="translate(578,574)" d="m0 0 4 1-5 4-4 2-3-1 6-5z" fill="#305F7E"/>
<path transform="translate(666,432)" d="m0 0 3 3 2 6v5l-2-3-4-8z" fill="#2C6689"/>
<path transform="translate(477,368)" d="m0 0m-2 1h2l-1 3-9 4-2-1 4-4z" fill="#2C6689"/>
<path transform="translate(564,342)" d="m0 0 9 1-1 4-6-1-3-2z" fill="#3A6684"/>
<path transform="translate(270,333)" d="m0 0 2 3-2 10-2 1v-9z" fill="#E9EEEB"/>
<path transform="translate(724,248)" d="m0 0 4 1 2 1v2l4 2 2 3h-3l-9-8z" fill="#1F334C"/>
<path transform="translate(580,784)" d="m0 0m-1 1m-1 1v3l-7 6-2-1 4-6z" fill="#C8D5D5"/>
<path transform="translate(512,772)" d="m0 0 4 2 6 6-1 4-2-4-7-6z" fill="#1C334D"/>
<path transform="translate(544,633)" d="m0 0h8l-2 1v2l-3 1h-9v-1h6z" fill="#63889D"/>
<path transform="translate(375,406)" d="m0 0 1 3-5 13-1-4 2-7v-3h3z" fill="#C3E7E9"/>
<path transform="translate(450,385)" d="m0 0 2 1-8 8-4 3v-3z" fill="#2C6689"/>
<path transform="translate(591,328)" d="m0 0 6 2 4 3-5 1-5-4z" fill="#47718D"/>
<path transform="translate(494,608)" d="m0 0 12 2-3 2h-10z" fill="#306687"/>
<path transform="translate(686,561)" d="m0 0h2v3l-3 3-1 3h-2l-1 4-2-1z" fill="#C0CACB"/>
<path transform="translate(640,362)" d="m0 0 3 1 5 6-1 3-7-7z" fill="#CCD8D8"/>
<path transform="translate(356,206)" d="m0 0 4 1v2l-6 1-6-1 1-2h6z" fill="#8FACB6"/>
<path transform="translate(620,571)" d="m0 0 2 2-4 1v2l-4 3-2-1 4-6z" fill="#2E5F80"/>
<path transform="translate(180,569)" d="m0 0 4 1v5l-6-2z" fill="#C1CACA"/>
<path transform="translate(498,474)" d="m0 0h3l-2 6-3 1v3h-2l2-7z" fill="#517992"/>
<path transform="translate(657,385)" d="m0 0 4 1 3 5-1 4-6-9z" fill="#C3E8EA"/>
<path transform="translate(458,325)" d="m0 0h2v4l-7 1-2-2z" fill="#48738E"/>
<path transform="translate(550,314)" d="m0 0 6 1v2h-11l-1-2z" fill="#417290"/>
<path transform="translate(490,311)" d="m0 0h10l-3 3-8 1z" fill="#ADC4C9"/>
</svg>
